name C:\Users\u0101727\Documents\MyRepositories\upper-imu-dc\Results\main_tracking\Case_50\kinematics_filtered.mot
datacolumns 10
datarows 37
range 0.00000000 0.36000000
endheader 
time	clav_prot	clav_elev	scapula_abduction	scapula_elevation	scapula_upward_rot	scapula_winging	plane_elv	shoulder_elv	axial_rot	
          0.00000000	        -29.28248652	         -2.61408615	        -22.92669717	         -3.79703408	         15.40438971	          3.80849464	        -30.92302389	         14.97024609	         23.60719573	
          0.01000000	        -29.26646337	         -2.61127184	        -22.91063727	         -3.79593439	         15.40040937	          3.80827812	        -30.90736983	         14.99584747	         23.34386368	
          0.02000000	        -29.25239478	         -2.60863050	        -22.89704877	         -3.79483533	         15.39651875	          3.80804143	        -30.89219321	         15.02142799	         23.08031628	
          0.03000000	        -29.24148288	         -2.60633904	        -22.88737840	         -3.79378886	         15.39281332	          3.80779608	        -30.87822363	         15.04650202	         22.82149120	
          0.04000000	        -29.23411110	         -2.60452640	        -22.88203512	         -3.79286549	         15.38934760	          3.80756947	        -30.86621335	         15.07062551	         22.57175386	
          0.05000000	        -29.23008262	         -2.60329496	        -22.88070496	         -3.79215268	         15.38613112	          3.80740454	        -30.85691740	         15.09341019	         22.33490843	
          0.06000000	        -29.22889507	         -2.60274248	        -22.88270986	         -3.79175179	         15.38312940	          3.80735773	        -30.85107348	         15.11454136	         22.11420384	
          0.07000000	        -29.22993851	         -2.60297613	        -22.88726379	         -3.79177507	         15.38026822	          3.80749625	        -30.84938239	         15.13379306	         21.91232656	
          0.08000000	        -29.23262532	         -2.60411944	        -22.89363800	         -3.79234276	         15.37744085	          3.80789494	        -30.85248943	         15.15103857	         21.73138315	
          0.09000000	        -29.23646474	         -2.60631284	        -22.90125196	         -3.79357973	         15.37451808	          3.80863227	        -30.86096711	         15.16625547	         21.57288060	
          0.10000000	        -29.24109550	         -2.60970871	        -22.90970845	         -3.79561151	         15.37136068	          3.80978568	        -30.87529862	         15.17952563	         21.43771385	
          0.11000000	        -29.24628971	         -2.61446230	        -22.91879021	         -3.79855956	         15.36783345	          3.81142602	        -30.89586157	         15.19103067	         21.32616882	
          0.12000000	        -29.25193913	         -2.62072004	        -22.92843403	         -3.80253593	         15.36381943	          3.81361181	        -30.92291167	         15.20104398	         21.23794639	
          0.13000000	        -29.25803294	         -2.62860700	        -22.93869509	         -3.80763769	         15.35923263	          3.81638357	        -30.95656606	         15.20992024	         21.17220960	
          0.14000000	        -29.26463374	         -2.63821508	        -22.94971117	         -3.81394163	         15.35402782	          3.81975894	        -30.99678668	         15.21808357	         21.12765273	
          0.15000000	        -29.27185633	         -2.64959326	        -22.96167344	         -3.82149969	         15.34820610	          3.82372893	        -31.04336427	         15.22601522	         21.10258813	
          0.16000000	        -29.27985162	         -2.66274077	        -22.97480721	         -3.83033533	         15.34181571	          3.82825578	        -31.09590396	         15.23424184	         21.09504418	
          0.17000000	        -29.28879675	         -2.67760349	        -22.98936358	         -3.84044129	         15.33494811	          3.83327231	        -31.15381342	         15.24332483	         21.10286593	
          0.18000000	        -29.29889091	         -2.69407342	        -23.00562110	         -3.85177836	         15.32773004	          3.83868276	        -31.21629427	         15.25385146	         21.12381027	
          0.19000000	        -29.31035581	         -2.71199066	        -23.02389487	         -3.86427534	         15.32031268	          3.84436481	        -31.28233741	         15.26642776	         21.15562750	
          0.20000000	        -29.32343928	         -2.73114711	        -23.04455043	         -3.87782964	         15.31285937	          3.85017220	        -31.35072234	         15.28167341	         21.19612336	
          0.21000000	        -29.33842049	         -2.75129112	        -23.06801923	         -3.89230841	         15.30553308	          3.85593773	        -31.42002047	         15.30021822	         21.24319760	
          0.22000000	        -29.35561514	         -2.77213254	        -23.09481292	         -3.90754995	         15.29848498	          3.86147627	        -31.48860240	         15.32269987	         21.29485763	
          0.23000000	        -29.37537947	         -2.79334762	        -23.12553391	         -3.92336540	         15.29184500	          3.86658743	        -31.55464894	         15.34976278	         21.34920806	
          0.24000000	        -29.39811173	         -2.81458388	        -23.16088003	         -3.93954075	         15.28571533	          3.87105798	        -31.61616638	         15.38205758	         21.40441892	
          0.25000000	        -29.42425029	         -2.83546489	        -23.20164110	         -3.95583955	         15.28016736	          3.87466399	        -31.67100648	         15.42024118	         21.45867706	
          0.26000000	        -29.45426748	         -2.85559554	        -23.24868609	         -3.97200648	         15.27524251	          3.87717279	        -31.71689218	         15.46497717	         21.51012650	
          0.27000000	        -29.48865880	         -2.87456791	        -23.30293993	         -3.98777230	         15.27095732	          3.87834497	        -31.75144997	         15.51693644	         21.55680429	
          0.28000000	        -29.52792756	         -2.89196826	        -23.36535008	         -4.00286024	         15.26731228	          3.87793667	        -31.77224982	         15.57679768	         21.59657927	
          0.29000000	        -29.57256545	         -2.90738523	        -23.43684411	         -4.01699398	         15.26430433	          3.87570211	        -31.77685270	         15.64524734	         21.62710085	
          0.30000000	        -29.62303004	         -2.92041906	        -23.51828032	         -4.02990683	         15.26194196	          3.87139666	        -31.76286503	         15.72297856	         21.64576438	
          0.31000000	        -29.67972068	         -2.93069169	        -23.61039476	         -4.04135198	         15.26026198	          3.86478032	        -31.72799843	         15.81068845	         21.64969897	
          0.32000000	        -29.74295447	         -2.93785687	        -23.71374811	         -4.05111275	         15.25934677	          3.85562136	        -31.67013202	         15.90907311	         21.63578149	
          0.33000000	        -29.81294396	         -2.94160966	        -23.82867652	         -4.05901250	         15.25934080	          3.84370015	        -31.58737389	         16.01882018	         21.60067879	
          0.34000000	        -29.88977860	         -2.94169454	        -23.95525016	         -4.06492297	         15.26046510	          3.82881272	        -31.47811819	         16.14059868	         21.54091800	
          0.35000000	        -29.97341104	         -2.93791113	        -24.09324268	         -4.06877059	         15.26302883	          3.81077379	        -31.34109424	         16.27504657	         21.45298212	
          0.36000000	        -30.06364984	         -2.93011728	        -24.24211452	         -4.07054008	         15.26743671	          3.78941917	        -31.17540446	         16.42275634	         21.33342614	
